<?xml version="1.0" standalone="no"?>
<!DOCTYPE svg PUBLIC "-//W3C//DTD SVG 20010904//EN"
 "http://www.w3.org/TR/2001/REC-SVG-20010904/DTD/svg10.dtd">
<svg version="1.0" xmlns="http://www.w3.org/2000/svg"
 width="300.000000pt" height="300.000000pt" viewBox="0 0 300.000000 300.000000"
 preserveAspectRatio="xMidYMid meet">
<metadata>
Created by potrace 1.10, written by Peter Selinger 2001-2011
</metadata>
<g transform="translate(0.000000,300.000000) scale(0.100000,-0.100000)"
fill="#000000" stroke="none">
<path d="M1430 2520 c-405 -40 -729 -271 -846 -603 -79 -222 -41 -482 97 -684
38 -54 144 -164 204 -210 54 -41 145 -94 145 -85 0 10 -55 52 -68 52 -4 0 -19
10 -32 23 -14 12 -28 21 -32 20 -4 -2 -16 9 -26 22 -11 14 -22 25 -26 25 -11
0 -86 85 -86 98 0 7 5 10 12 6 7 -4 8 -3 4 5 -6 9 -11 9 -21 1 -9 -8 -19 -2
-39 25 -15 19 -25 35 -22 35 3 0 -4 12 -17 26 -12 14 -22 31 -22 37 -1 16 -25
60 -38 68 -5 4 -10 25 -11 47 0 22 -4 36 -7 30 -11 -17 -40 130 -41 201 0 70
15 172 35 231 6 19 11 38 12 42 0 12 15 21 15 9 0 -7 5 -9 11 -5 8 4 7 9 -2
14 -10 7 -10 13 -1 32 7 13 10 15 7 5 -3 -11 -1 -15 6 -12 5 4 7 16 3 27 -4
14 -3 18 6 13 7 -4 10 -1 8 9 -4 19 33 77 47 73 13 -5 39 22 31 31 -4 3 -11 0
-16 -8 -5 -8 -12 -12 -15 -8 -3 3 5 15 19 26 15 11 26 25 26 31 0 6 4 11 8 11
5 0 15 11 22 25 10 19 19 24 34 19 17 -4 18 -3 6 6 -11 8 -12 13 -3 16 6 3 27
19 45 35 18 16 41 27 50 25 10 -2 15 1 12 9 -3 7 4 16 15 20 12 3 21 10 21 15
0 5 6 7 13 4 7 -2 22 3 33 13 11 10 30 23 41 30 18 10 22 10 26 -5 4 -13 5
-12 6 5 1 20 27 37 47 31 5 -1 24 6 42 15 17 10 32 15 32 11 0 -4 7 -1 15 6
12 10 18 10 30 0 12 -10 15 -10 15 3 0 17 56 29 141 31 26 1 45 4 42 9 -2 4
42 7 99 7 69 0 98 -3 88 -10 -10 -6 -3 -8 22 -3 39 6 122 -11 147 -31 11 -8
13 -8 7 2 -10 16 4 15 28 -3 11 -8 30 -15 42 -15 31 0 55 -10 48 -21 -3 -5 3
-6 12 -2 13 5 15 3 9 -7 -6 -10 -4 -12 9 -7 20 8 134 -45 154 -71 7 -9 15 -16
17 -15 12 6 35 -11 35 -26 0 -11 3 -12 8 -4 6 9 23 -2 60 -35 29 -26 52 -53
52 -60 0 -7 6 -12 14 -12 18 0 55 -51 49 -67 -2 -6 1 -14 6 -18 7 -3 8 0 5 9
-12 31 4 15 36 -34 18 -28 28 -54 24 -61 -5 -8 -3 -9 6 -4 10 6 12 4 7 -9 -4
-9 -3 -15 2 -12 12 8 53 -99 76 -193 21 -87 16 -249 -9 -320 -9 -24 -13 -48
-9 -55 4 -7 1 -6 -9 2 -13 11 -15 8 -12 -23 1 -19 -2 -33 -7 -30 -5 4 -6 -1
-3 -9 4 -11 0 -16 -11 -16 -12 0 -15 -5 -10 -21 5 -14 4 -19 -4 -15 -7 5 -8 1
-4 -10 4 -11 3 -15 -4 -11 -7 4 -14 -5 -18 -22 -3 -16 -13 -36 -22 -43 -15
-12 -15 -10 -4 12 11 22 10 23 -2 8 -8 -10 -16 -15 -19 -13 -3 3 -4 -5 -3 -18
2 -16 -12 -39 -44 -73 -56 -61 -150 -139 -178 -148 -12 -4 -24 -13 -27 -21 -3
-8 -10 -15 -16 -15 -6 0 -10 34 -10 88 l0 87 -517 -5 -518 -5 0 -120 0 -120
62 -3 62 -3 -34 -44 c-39 -52 -54 -119 -35 -156 7 -13 27 -38 44 -55 69 -70
76 -86 76 -172 0 -44 3 -88 6 -97 13 -32 61 -46 164 -47 96 0 98 -1 119 -29
47 -63 154 -88 227 -53 19 9 48 33 64 52 24 30 36 36 70 37 28 1 48 9 63 24
21 20 22 30 22 177 l0 156 -29 25 c-26 22 -36 25 -78 20 -49 -6 -59 1 -33 23
21 17 30 79 16 102 -18 28 -5 38 49 38 54 0 69 -12 48 -38 -12 -15 -11 -16 5
-3 20 16 19 17 45 -30 19 -34 27 -93 11 -84 -4 3 -10 1 -14 -5 -4 -6 -11 -7
-17 -4 -7 4 -8 2 -4 -5 6 -9 11 -9 22 0 18 15 17 -1 -1 -25 -16 -21 -20 -46
-7 -46 14 1 46 86 45 123 0 27 -10 50 -32 77 -17 21 -31 40 -31 42 0 2 29 2
65 1 l65 -3 0 34 c0 26 5 36 20 41 11 4 55 32 98 64 239 177 366 454 334 722
-30 243 -168 457 -392 606 -194 129 -470 197 -710 173z m640 -1512 l0 -108
-67 0 c-65 -1 -780 -1 -890 0 l-53 0 0 108 0 107 505 1 505 0 0 -108z m-258
-140 c-7 -7 -12 -25 -12 -40 0 -15 -5 -48 -12 -73 l-12 -45 -151 -2 c-82 -1
-163 -1 -180 -1 -103 5 -92 -2 -109 70 -8 37 -22 73 -30 82 -10 9 -16 11 -16
4 0 -7 -11 -23 -25 -37 -27 -27 -32 -60 -12 -80 13 -14 52 -36 62 -36 13 0
-13 32 -35 43 -13 7 -25 18 -28 26 -3 9 0 11 8 6 8 -5 11 -4 7 2 -3 5 3 17 13
26 13 11 22 13 26 5 4 -5 0 -14 -7 -19 -12 -7 -12 -9 0 -9 7 0 11 -6 8 -14 -3
-8 0 -17 8 -20 8 -3 13 -17 12 -32 -2 -22 -7 -27 -35 -29 -51 -4 -72 -30 -72
-87 0 -50 -13 -64 -26 -25 -5 12 -8 24 -9 27 0 10 -45 50 -55 50 -7 0 -7 6 0
19 12 24 13 41 1 22 -8 -12 -11 -9 -17 14 -7 30 7 62 26 57 6 -1 9 2 5 8 -3 6
-11 7 -17 4 -6 -4 -3 5 8 19 10 15 23 27 27 27 5 0 5 5 2 10 -3 6 1 13 9 16 9
3 14 10 11 15 -3 4 139 8 317 9 253 0 320 -2 310 -12z m-432 -179 c-35 -8 -35
-8 8 -6 23 2 42 -1 42 -5 0 -5 -22 -8 -50 -8 -46 0 -60 7 -43 23 3 4 22 6 42
6 l36 -2 -35 -8z m532 -11 c19 -19 23 -34 23 -85 0 -33 -3 -59 -6 -57 -4 2 -4
-27 -1 -64 5 -77 -7 -100 -54 -98 l-27 1 2 82 c2 64 -2 88 -16 110 -22 35 -64
73 -80 73 -10 0 -10 6 -1 25 6 14 15 25 20 25 5 0 4 -10 -2 -22 -11 -22 -10
-22 4 -4 9 11 16 23 16 26 0 4 22 8 50 9 40 1 54 -3 72 -21z m-410 -23 c-3 -5
2 -4 12 4 13 11 14 16 4 22 -10 7 -9 9 5 9 9 0 17 -7 17 -16 0 -11 6 -14 23
-8 12 4 24 10 27 15 3 4 12 4 20 -1 21 -13 43 -12 34 1 -5 8 -2 9 12 1 11 -6
27 -7 43 -1 30 12 53 5 45 -14 -3 -10 -19 -12 -59 -9 -66 5 -91 0 -137 -32
-20 -13 -41 -20 -48 -16 -6 4 -11 9 -9 11 4 7 -25 49 -34 49 -4 0 -5 -4 -2
-10 3 -5 1 -10 -4 -10 -6 0 -11 7 -11 16 0 12 7 15 25 12 14 -3 25 -1 25 6 0
6 4 4 9 -4 6 -8 7 -19 3 -25z m-189 18 c-7 -2 -21 -2 -30 0 -10 3 -4 5 12 5
17 0 24 -2 18 -5z m3 -35 c-1 -17 5 -23 24 -25 50 -5 91 -5 97 1 3 3 15 0 27
-6 21 -11 21 -10 3 10 -12 13 -15 22 -8 27 6 3 11 -1 11 -10 0 -9 5 -13 10
-10 6 4 10 3 9 -2 -4 -21 2 -34 12 -27 8 5 8 1 0 -14 -6 -12 -16 -24 -22 -27
-5 -4 -9 -28 -9 -53 1 -26 -1 -69 -4 -97 -5 -49 -5 -49 5 -10 5 22 11 58 12
80 5 60 16 87 51 118 91 83 218 69 286 -30 21 -31 22 -40 16 -121 -5 -59 -13
-97 -27 -117 -10 -16 -19 -26 -19 -20 0 5 -7 -1 -16 -13 -8 -12 -20 -19 -26
-16 -7 5 -8 2 -4 -5 5 -8 0 -14 -13 -18 -12 -3 -21 -9 -21 -14 0 -5 -8 -9 -17
-9 -15 0 -16 2 -3 10 22 14 3 12 -20 -2 -17 -11 -22 -10 -31 2 -8 12 -12 12
-16 2 -4 -10 -10 -10 -29 3 -13 8 -24 12 -24 8 0 -5 -5 0 -11 10 -6 9 -14 15
-20 12 -5 -4 -6 2 -2 12 3 10 3 15 -2 11 -4 -4 -19 6 -33 22 -23 26 -27 27
-37 13 -8 -10 -17 -13 -26 -8 -7 5 -26 9 -42 9 -15 1 -32 8 -37 16 -8 13 -11
12 -23 -4 -14 -19 -16 -19 -31 -3 -22 21 -27 22 -19 1 5 -14 3 -14 -14 -3 -13
7 -18 19 -15 31 2 10 -1 18 -7 18 -6 0 -11 7 -11 16 0 8 3 13 8 11 8 -6 7 81
-2 90 -10 10 -7 35 4 28 13 -8 0 28 -14 38 -7 5 -5 12 7 21 12 10 14 15 6 18
-17 6 -3 27 25 38 34 14 43 11 42 -12z m87 13 c11 -2 8 -29 -5 -37 -6 -4 -8
-3 -5 2 3 6 2 16 -4 24 -7 13 -9 12 -9 -2 0 -10 -4 -18 -10 -18 -5 0 -10 7
-10 15 0 8 -4 15 -10 15 -5 0 -10 -7 -10 -16 0 -8 -4 -13 -10 -9 -5 3 -7 12
-4 20 5 13 21 14 77 6z m37 -17 c0 -8 -4 -14 -10 -14 -5 0 -10 9 -10 21 0 11
5 17 10 14 6 -3 10 -13 10 -21z m484 -279 c-7 -16 -24 -21 -24 -6 0 8 7 13 27
20 1 1 0 -6 -3 -14z m-64 -5 c0 -5 -4 -10 -10 -10 -5 0 -10 5 -10 10 0 6 5 10
10 10 6 0 10 -4 10 -10z m30 0 c0 -5 -4 -10 -10 -10 -5 0 -10 5 -10 10 0 6 5
10 10 10 6 0 10 -4 10 -10z"/>
<path d="M1377 1079 c7 -7 15 -10 18 -7 3 3 -2 9 -12 12 -14 6 -15 5 -6 -5z"/>
<path d="M1132 1021 c-8 -22 -7 -34 4 -50 13 -18 18 -19 37 -8 30 17 47 34 47
46 0 6 5 11 10 11 6 0 10 -14 10 -31 0 -25 -3 -29 -13 -20 -10 8 -14 7 -14 -2
0 -21 29 -16 35 5 2 10 8 18 12 18 12 0 30 -26 23 -33 -3 -4 -1 -7 6 -7 33 0
53 56 32 89 -7 11 -13 8 -32 -13 -17 -19 -25 -23 -36 -15 -7 6 -10 15 -7 20 3
5 -4 9 -15 9 -12 0 -21 -6 -21 -14 0 -8 -6 -18 -12 -22 -7 -4 -10 -4 -6 1 7 8
-28 45 -43 45 -4 0 -12 -13 -17 -29z m37 -13 c10 -25 -1 -44 -18 -34 -14 9
-14 56 -1 56 6 0 15 -10 19 -22z m149 -3 c0 -15 -6 -25 -14 -25 -14 0 -19 31
-7 43 13 13 21 7 21 -18z"/>
<path d="M1507 1032 c-19 -21 -23 -52 -6 -52 5 0 7 -5 3 -12 -4 -6 -3 -8 4 -4
5 3 12 0 15 -6 3 -9 12 -5 27 11 22 22 22 26 9 49 -18 33 -32 37 -52 14z m38
-27 c0 -14 -4 -25 -8 -25 -5 0 -5 -6 -1 -12 5 -9 2 -9 -9 1 -17 14 -23 42 -10
54 14 15 28 6 28 -18z"/>
<path d="M1653 1043 c-8 -3 -12 -21 -12 -46 l2 -42 6 34 c8 44 31 54 31 13 0
-17 -6 -33 -12 -35 -7 -3 -4 -6 7 -6 25 -1 31 32 13 67 -12 23 -14 24 -35 15z"/>
<path d="M1833 1038 c2 -7 10 -12 16 -10 13 3 14 -4 2 -46 -12 -41 -4 -41 14
0 9 22 10 39 4 50 -11 20 -43 25 -36 6z"/>
<path d="M1908 1031 c-21 -21 -22 -40 -5 -61 16 -20 67 -21 59 -1 -4 12 -1 11
18 -2 27 -19 55 -23 45 -7 -3 6 -3 15 1 22 4 7 9 24 10 37 2 17 0 21 -5 13 -7
-11 -9 -10 -14 2 -7 18 -37 22 -37 5 0 -6 -7 -8 -15 -5 -35 14 -41 14 -57 -3z
m51 -19 c12 -22 -3 -42 -31 -42 -12 0 -18 8 -18 23 0 40 31 52 49 19z m49 -15
c3 -21 0 -26 -12 -21 -19 7 -22 58 -3 52 6 -3 13 -17 15 -31z"/>
<path d="M1930 1005 c0 -8 5 -15 10 -15 6 0 10 7 10 15 0 8 -4 15 -10 15 -5 0
-10 -7 -10 -15z"/>
<path d="M1726 1024 c-11 -28 -6 -52 10 -58 24 -9 29 0 10 19 -29 30 -15 40
51 38 7 -1 10 3 7 8 -9 16 -71 10 -78 -7z"/>
<path d="M1358 1022 c-15 -6 -15 -10 -3 -32 l14 -25 1 28 c0 17 5 27 15 27 21
0 19 -40 -2 -56 -17 -12 -16 -13 4 -8 24 7 35 34 21 58 -9 17 -22 19 -50 8z"/>
<path d="M1780 1005 c0 -8 -3 -22 -6 -32 -6 -14 -2 -13 16 5 18 19 24 21 31
10 6 -9 9 -7 9 8 0 16 -6 22 -25 22 -14 0 -25 -6 -25 -13z"/>
<path d="M1606 1001 c-3 -5 1 -11 9 -14 9 -4 12 -1 8 9 -6 16 -10 17 -17 5z"/>
<path d="M1180 846 c0 -2 7 -7 16 -10 8 -3 12 -2 9 4 -6 10 -25 14 -25 6z"/>
<path d="M1185 770 c4 -6 11 -8 16 -5 14 9 11 15 -7 15 -8 0 -12 -5 -9 -10z"/>
<path d="M1376 767 c3 -10 9 -15 12 -12 3 3 0 11 -7 18 -10 9 -11 8 -5 -6z"/>
<path d="M1200 715 c0 -5 5 -17 10 -25 5 -8 10 -10 10 -5 0 6 -5 17 -10 25 -5
8 -10 11 -10 5z"/>
<path d="M1843 683 c9 -2 23 -2 30 0 6 3 -1 5 -18 5 -16 0 -22 -2 -12 -5z"/>
<path d="M1916 643 c-6 -14 -5 -15 5 -6 7 7 10 15 7 18 -3 3 -9 -2 -12 -12z"/>
<path d="M1718 673 c7 -3 16 -2 19 1 4 3 -2 6 -13 5 -11 0 -14 -3 -6 -6z"/>
<path d="M1584 567 c-37 -18 -89 -65 -81 -74 4 -3 17 5 29 18 33 35 101 63
137 56 50 -10 103 -36 96 -47 -8 -14 -36 -13 -32 1 1 6 -4 14 -12 17 -8 2 -11
0 -7 -6 4 -6 -2 -8 -14 -5 -11 3 -18 9 -15 13 3 4 -11 4 -30 0 -19 -4 -35 -6
-35 -3 0 7 -63 -39 -92 -68 -16 -15 -28 -31 -28 -36 0 -4 5 -1 10 7 8 12 10
10 9 -10 -4 -46 1 -90 9 -90 4 0 7 23 6 51 -2 45 1 55 31 87 31 34 38 37 89
36 63 0 90 -18 113 -73 10 -24 11 -37 4 -44 -8 -8 -11 -6 -11 6 0 58 -77 115
-129 95 -32 -12 -71 -47 -71 -64 0 -7 -6 -14 -12 -17 -7 -2 -10 -8 -6 -12 9
-10 38 13 38 30 0 38 82 67 115 40 13 -11 15 -15 5 -12 -17 5 -21 -28 -7 -50
10 -15 37 -17 37 -3 0 6 -7 10 -15 10 -8 0 -15 7 -15 15 0 28 27 15 37 -18 15
-50 -12 -98 -52 -92 -38 6 -63 20 -82 48 -14 19 -23 25 -23 16 0 -19 36 -54
70 -68 17 -6 19 -10 8 -10 -31 -2 -67 21 -82 53 -13 26 -16 28 -16 9 0 -12 6
-28 13 -35 18 -17 10 -39 -10 -31 -9 4 -3 -7 15 -23 18 -18 40 -29 54 -28 40
2 78 16 72 25 -3 6 -15 7 -26 3 -30 -9 -88 5 -88 22 0 13 4 13 28 1 42 -22
102 4 140 59 12 18 13 18 7 1 -3 -12 -1 -17 7 -15 7 3 13 9 14 14 0 5 4 17 9
27 5 13 1 32 -14 59 -25 48 -26 55 -5 55 9 0 21 -11 27 -24 10 -23 27 -31 27
-13 0 6 -4 10 -10 10 -5 0 -12 11 -16 25 -5 21 -9 23 -20 14 -12 -10 -13 -9
-8 5 4 10 0 18 -12 23 -11 3 -22 11 -25 16 -11 16 -122 19 -155 4z m36 -297
c0 -5 -2 -10 -4 -10 -3 0 -8 5 -11 10 -3 6 -1 10 4 10 6 0 11 -4 11 -10z"/>
<path d="M1440 509 c0 -5 5 -7 10 -4 6 3 10 8 10 11 0 2 -4 4 -10 4 -5 0 -10
-5 -10 -11z"/>
<path d="M1441 353 c7 -12 15 -20 18 -17 3 2 -3 12 -13 22 -17 16 -18 16 -5
-5z"/>
<path d="M1731 310 c-13 -11 -18 -20 -12 -20 7 0 21 9 33 20 28 26 10 26 -21
0z"/>
<path d="M1160 2419 c0 -5 5 -7 10 -4 6 3 10 8 10 11 0 2 -4 4 -10 4 -5 0 -10
-5 -10 -11z"/>
<path d="M1611 2354 c0 -11 3 -14 6 -6 3 7 2 16 -1 19 -3 4 -6 -2 -5 -13z"/>
<path d="M1190 2296 c0 -8 4 -17 9 -20 5 -4 7 3 4 14 -6 23 -13 26 -13 6z"/>
<path d="M960 2285 c7 -8 20 -14 29 -14 13 1 13 2 -1 6 -10 2 -18 9 -18 14 0
5 -5 9 -11 9 -8 0 -8 -5 1 -15z"/>
<path d="M1578 2263 c7 -3 16 -2 19 1 4 3 -2 6 -13 5 -11 0 -14 -3 -6 -6z"/>
<path d="M1312 2240 c-212 -29 -327 -128 -325 -279 1 -52 7 -76 38 -136 20
-41 44 -76 52 -79 13 -5 12 -1 -3 21 -73 111 -91 196 -59 279 14 38 19 44 27
30 5 -9 6 -22 2 -29 -5 -9 -4 -9 5 -1 10 9 10 17 2 33 -9 17 -8 24 8 38 48 44
80 62 158 90 68 25 324 25 403 0 30 -10 71 -22 90 -28 54 -17 90 -33 90 -41 0
-5 5 -8 10 -8 26 0 123 -101 161 -168 39 -66 55 -127 58 -217 4 -100 11 -94
11 8 0 102 -20 165 -81 253 -57 81 -100 118 -183 159 -129 63 -322 94 -464 75z"/>
<path d="M1818 2223 c7 -3 16 -2 19 1 4 3 -2 6 -13 5 -11 0 -14 -3 -6 -6z"/>
<path d="M2391 2204 c0 -11 3 -14 6 -6 3 7 2 16 -1 19 -3 4 -6 -2 -5 -13z"/>
<path d="M1225 2180 c3 -5 8 -10 11 -10 2 0 4 5 4 10 0 6 -5 10 -11 10 -5 0
-7 -4 -4 -10z"/>
<path d="M1608 2183 c6 -2 18 -2 25 0 6 3 1 5 -13 5 -14 0 -19 -2 -12 -5z"/>
<path d="M1158 2163 c7 -3 16 -2 19 1 4 3 -2 6 -13 5 -11 0 -14 -3 -6 -6z"/>
<path d="M1883 2163 c-7 -2 -13 -8 -13 -13 0 -10 38 -1 46 11 6 10 -13 11 -33
2z"/>
<path d="M1898 2123 c7 -3 16 -2 19 1 4 3 -2 6 -13 5 -11 0 -14 -3 -6 -6z"/>
<path d="M2188 2043 c7 -3 16 -2 19 1 4 3 -2 6 -13 5 -11 0 -14 -3 -6 -6z"/>
<path d="M2217 2003 c-4 -3 -7 -11 -7 -17 0 -6 5 -5 12 2 6 6 9 14 7 17 -3 3
-9 2 -12 -2z"/>
<path d="M2168 1973 c7 -3 16 -2 19 1 4 3 -2 6 -13 5 -11 0 -14 -3 -6 -6z"/>
<path d="M818 1923 c7 -3 16 -2 19 1 4 3 -2 6 -13 5 -11 0 -14 -3 -6 -6z"/>
<path d="M1458 1915 c-4 -4 -40 -13 -80 -21 -84 -16 -185 -62 -227 -104 -42
-43 -76 -117 -76 -170 0 -34 8 -56 33 -93 19 -29 32 -60 32 -80 0 -67 77 -137
150 -137 66 0 166 79 172 135 l3 30 70 0 70 0 -3 -32 c-1 -18 3 -33 8 -33 6 0
28 -18 49 -39 64 -65 150 -75 217 -25 17 12 37 37 44 54 26 63 20 20 -9 -59
-16 -44 -26 -81 -22 -81 4 0 22 21 40 48 17 26 41 59 53 74 23 30 47 136 48
215 0 58 -6 68 -85 148 -80 80 -134 114 -235 151 -47 17 -240 31 -252 19z
m162 -27 c0 -7 14 -9 38 -5 20 3 31 3 24 0 -6 -2 -10 -9 -6 -14 4 -8 -33 -14
-58 -10 -5 0 -8 -3 -8 -9 0 -5 -14 -7 -31 -5 -27 3 -29 2 -17 -13 8 -10 9 -13
1 -9 -6 4 -14 3 -18 -3 -4 -6 -10 -8 -15 -5 -14 9 -58 -57 -65 -97 -8 -43 9
-54 19 -13 11 44 76 101 135 119 30 9 67 16 81 16 47 0 118 -31 161 -69 45
-39 47 -49 74 -271 4 -42 4 -43 -5 -13 -13 41 -45 62 -107 73 -38 6 -41 8 -16
9 17 0 44 -4 58 -9 20 -8 26 -7 23 2 -9 26 -55 32 -130 18 -43 -7 -141 -13
-238 -12 -217 0 -201 -2 -194 30 22 90 60 144 138 193 47 29 56 40 43 45 -23
9 -67 -4 -64 -18 1 -7 -7 -14 -18 -16 -29 -6 -45 -21 -38 -37 3 -9 -4 -16 -21
-21 -14 -3 -25 -9 -24 -13 4 -13 -14 -51 -23 -51 -6 0 -7 5 -4 10 3 6 1 10 -4
10 -7 0 -11 -25 -11 -63 0 -56 -2 -63 -20 -63 -12 0 -20 7 -20 16 0 20 27 108
42 135 11 20 11 20 -11 1 -11 -11 -21 -25 -21 -33 0 -7 -4 -13 -9 -13 -8 0
-14 -12 -39 -75 -2 -5 1 -3 7 5 9 11 11 -6 9 -68 -1 -45 -5 -76 -10 -70 -5 9
-8 6 -8 -8 0 -18 63 -114 75 -114 2 0 -3 16 -11 36 -8 19 -18 64 -21 100 l-6
64 27 0 c16 0 26 -5 26 -14 0 -8 5 -18 12 -22 8 -5 9 0 6 14 -7 25 6 28 48 12
38 -15 53 -39 54 -83 1 -134 -201 -176 -263 -55 -30 60 -14 66 27 10 42 -58
65 -69 40 -20 -9 18 -20 44 -25 58 -5 17 -8 19 -8 7 -1 -15 -5 -14 -26 9 -28
30 -31 38 -12 29 6 -4 2 2 -10 13 -12 11 -19 22 -16 26 4 3 -1 6 -10 6 -10 0
-14 5 -11 15 4 8 2 15 -4 15 -14 0 -23 40 -9 41 8 0 8 2 0 6 -10 3 -10 10 -2
24 5 11 8 23 5 28 -3 5 1 14 9 21 8 7 12 16 9 21 -3 5 2 9 11 9 9 0 16 7 14
18 -3 31 1 35 17 21 15 -12 16 -11 10 9 -6 16 -3 22 8 22 9 0 16 4 16 10 0 9
78 48 110 54 8 2 28 8 44 15 21 9 32 9 42 0 10 -8 14 -8 14 0 0 6 13 11 29 11
17 0 32 4 35 9 9 14 146 13 146 -1z m335 -198 c-3 -5 4 -12 15 -15 32 -10 42
-49 30 -113 -5 -31 -10 -71 -10 -89 0 -18 -4 -33 -10 -33 -5 0 -6 -7 -3 -17 4
-10 2 -14 -4 -10 -6 4 -14 1 -17 -5 -3 -7 -4 0 -1 15 4 21 2 27 -6 21 -8 -5
-9 -3 -4 6 11 18 16 142 5 135 -4 -3 -10 26 -12 64 -2 54 0 67 9 59 7 -6 11
-14 8 -18z m-103 -150 c122 -34 66 -210 -67 -210 -75 0 -145 61 -145 125 0 31
23 68 50 82 30 15 112 17 162 3z m-205 -18 c-10 -10 -17 -24 -17 -32 0 -9 -3
-10 -14 -1 -21 17 -110 25 -145 13 -27 -10 -31 -9 -31 8 0 10 -6 21 -12 23 -7
3 43 6 111 6 120 1 124 0 108 -17z"/>
<path d="M1516 1853 c6 -4 14 -15 17 -23 5 -11 6 -9 4 4 -1 11 -9 21 -17 23
-10 3 -11 2 -4 -4z"/>
<path d="M1218 1803 c7 -3 16 -2 19 1 4 3 -2 6 -13 5 -11 0 -14 -3 -6 -6z"/>
<path d="M1200 1577 c0 -8 6 -14 14 -14 8 0 12 6 9 14 -3 7 -9 13 -14 13 -5 0
-9 -6 -9 -13z"/>
<path d="M1200 1538 c0 -4 4 -8 9 -8 5 0 12 -8 14 -17 3 -12 5 -9 6 8 1 17 -4
26 -14 26 -8 0 -15 -4 -15 -9z"/>
<path d="M1345 1500 c-18 -8 -17 -9 8 -9 15 -1 27 4 27 9 0 12 -8 12 -35 0z"/>
<path d="M1974 1562 c3 -5 0 -13 -6 -15 -9 -4 -10 -6 -1 -6 17 -1 25 16 12 25
-7 4 -9 3 -5 -4z"/>
<path d="M1838 1493 c12 -2 22 -9 22 -14 0 -6 5 -7 10 -4 19 12 10 21 -22 22
-20 0 -24 -1 -10 -4z"/>
<path d="M2385 1790 c3 -5 8 -10 11 -10 2 0 4 5 4 10 0 6 -5 10 -11 10 -5 0
-7 -4 -4 -10z"/>
<path d="M758 1613 c7 -3 16 -2 19 1 4 3 -2 6 -13 5 -11 0 -14 -3 -6 -6z"/>
<path d="M2141 1604 c0 -11 3 -14 6 -6 3 7 2 16 -1 19 -3 4 -6 -2 -5 -13z"/>
<path d="M2445 1590 c-3 -5 -1 -10 4 -10 6 0 11 5 11 10 0 6 -2 10 -4 10 -3 0
-8 -4 -11 -10z"/>
<path d="M2216 1563 c-6 -14 -5 -15 5 -6 7 7 10 15 7 18 -3 3 -9 -2 -12 -12z"/>
<path d="M2336 1562 c-3 -5 1 -9 9 -9 8 0 12 4 9 9 -3 4 -7 8 -9 8 -2 0 -6 -4
-9 -8z"/>
<path d="M2401 1524 c0 -11 3 -14 6 -6 3 7 2 16 -1 19 -3 4 -6 -2 -5 -13z"/>
<path d="M2091 1504 c0 -11 3 -14 6 -6 3 7 2 16 -1 19 -3 4 -6 -2 -5 -13z"/>
<path d="M2225 1500 c-3 -6 1 -7 9 -4 18 7 21 14 7 14 -6 0 -13 -4 -16 -10z"/>
<path d="M1069 1492 c0 -4 -2 -22 -5 -41 -2 -19 0 -39 4 -45 5 -6 18 -36 28
-66 10 -30 24 -59 31 -63 7 -4 13 -23 13 -42 0 -37 17 -91 26 -82 11 11 -17
111 -52 184 -35 74 -42 121 -23 140 7 7 6 12 -5 16 -9 4 -16 3 -17 -1z"/>
<path d="M2040 1480 c0 -5 5 -10 10 -10 20 0 9 -48 -23 -101 -18 -30 -31 -61
-29 -67 2 -7 -1 -12 -7 -12 -6 0 -11 -7 -11 -16 0 -14 2 -14 15 0 8 8 16 23
18 34 1 10 10 31 20 45 9 15 17 31 17 36 0 5 4 11 8 13 5 2 12 18 15 35 5 26
2 35 -13 43 -14 7 -20 7 -20 0z"/>
<path d="M2258 1463 c7 -3 16 -2 19 1 4 3 -2 6 -13 5 -11 0 -14 -3 -6 -6z"/>
<path d="M2318 1463 c7 -3 16 -2 19 1 4 3 -2 6 -13 5 -11 0 -14 -3 -6 -6z"/>
<path d="M2157 1421 c-4 -17 -3 -21 5 -13 5 5 8 16 6 23 -3 8 -7 3 -11 -10z"/>
<path d="M1489 1414 c-1 -5 -1 -12 0 -16 0 -5 -3 -8 -9 -8 -5 0 -9 -17 -9 -37
1 -26 3 -30 6 -13 2 14 9 35 15 47 6 13 8 26 5 30 -4 3 -8 2 -8 -3z"/>
<path d="M2125 1400 c3 -5 8 -10 11 -10 2 0 4 5 4 10 0 6 -5 10 -11 10 -5 0
-7 -4 -4 -10z"/>
<path d="M1623 1343 c1 -17 4 -19 14 -11 15 12 18 22 4 14 -5 -4 -11 0 -14 6
-3 7 -4 3 -4 -9z"/>
<path d="M1147 1339 c7 -7 15 -10 18 -7 3 3 -2 9 -12 12 -14 6 -15 5 -6 -5z"/>
<path d="M714 1286 c-3 -8 -1 -22 4 -32 7 -13 9 -10 8 15 -1 34 -4 38 -12 17z"/>
<path d="M1245 1280 c-3 -5 -1 -10 4 -10 6 0 11 5 11 10 0 6 -2 10 -4 10 -3 0
-8 -4 -11 -10z"/>
<path d="M1435 1259 c-11 -17 1 -21 15 -4 8 9 8 15 2 15 -6 0 -14 -5 -17 -11z"/>
<path d="M955 1250 c3 -5 8 -10 11 -10 2 0 4 5 4 10 0 6 -5 10 -11 10 -5 0 -7
-4 -4 -10z"/>
<path d="M1616 1245 c4 -8 7 -15 9 -15 2 0 5 7 9 15 3 9 0 15 -9 15 -9 0 -12
-6 -9 -15z"/>
<path d="M1927 1240 c-14 -62 -16 -90 -7 -90 6 0 10 13 10 29 0 16 6 31 12 33
10 4 10 10 1 29 l-11 24 -5 -25z"/>
<path d="M1955 1250 c-3 -5 -1 -10 4 -10 6 0 11 5 11 10 0 6 -2 10 -4 10 -3 0
-8 -4 -11 -10z"/>
<path d="M1418 1218 c-3 -7 4 -21 14 -30 22 -21 22 -19 4 16 -8 17 -15 22 -18
14z"/>
<path d="M1641 1214 c0 -11 3 -14 6 -6 3 7 2 16 -1 19 -3 4 -6 -2 -5 -13z"/>
<path d="M1565 1199 c-34 -21 -24 -25 23 -8 18 6 29 15 26 20 -7 12 -14 11
-49 -12z"/>
<path d="M1470 1195 c14 -8 34 -14 45 -14 18 0 17 1 -5 14 -14 8 -34 14 -45
14 -18 0 -17 -1 5 -14z"/>
<path d="M2140 1191 c0 -6 4 -13 10 -16 6 -3 7 1 4 9 -7 18 -14 21 -14 7z"/>
<path d="M1615 1180 c-3 -5 -2 -10 4 -10 5 0 13 5 16 10 3 6 2 10 -4 10 -5 0
-13 -4 -16 -10z"/>
<path d="M1207 309 c7 -7 15 -10 18 -7 3 3 -2 9 -12 12 -14 6 -15 5 -6 -5z"/>
<path d="M0 95 c0 -13 173 -15 1500 -15 1327 0 1500 2 1500 15 0 13 -173 15
-1500 15 -1327 0 -1500 -2 -1500 -15z"/>
</g>
</svg>
